<svg id="Capa_1" data-name="Capa 1" xmlns="http://www.w3.org/2000/svg" viewBox="0 0 1702.72 1634.03"><defs><style>.cls-1{fill:#262626;}.cls-2{fill:#0891b2;stroke:#16485a;stroke-miterlimit:10;stroke-width:16px;}</style></defs><rect class="cls-1" width="1702.72" height="1634.03" rx="332.7"/><path class="cls-2" d="M1125.33,653.5c-6.69-51.68-31.19-91.65-78.78-115.17-52.56-26-104.26-24.4-153.44,8.64-26.9,18.06-41.93,43.84-45.05,76.52-4.08,42.53,22.57,78.6,64.56,86.18,9.56,1.73,19.3,2.17,28.49-2,5.35-2.42,7.93-7.06,7.29-11.92a13,13,0,0,0-11.2-11c-1.31-.18-2.67,0-4-.15A54.51,54.51,0,0,1,884.9,631c-.1-13,3.5-25,8.52-36.68,15.47-36,51.83-53.22,89.57-42.26,27.85,8.09,46.12,27,58,52.65,9.08,19.65,12.22,40.6,13,62.13,1.92,51.68-15.09,96-50.61,133.44A256.69,256.69,0,0,1,891.82,869.7C871.63,876,851,879,829.71,876.65c-24.11-2.68-41-14.31-48.69-38a189.76,189.76,0,0,1-7.95-35c-4.88-38.65-9.59-77.32-14.43-116q-10.54-84.25-21.17-168.49-10.92-87.22-21.8-174.46c-1.15-9.17-1.25-9.19-10.85-9.19-32,0-64,.24-96-.19-7.3-.1-11.19,2.48-14.94,8.48Q502.17,490.85,410,637.65c-7.35,11.74-7.34,11.74-20.11,8.4-18.43-4.84-24.53-12.88-24.7-32.08-.11-12.11,2.49-23.83,4.87-35.56q31.48-155.59,63.19-311.16c5.18-25.43,9.35-51.1,17.06-75.95,6.91-22.28,19.85-31.81,43.29-32.73,7-.27,13.94-1,20.9-1.76s11.65-4.69,14-11.19a150.52,150.52,0,0,0,6.46-24c-3.5-1.41-6.85-.78-10.12-.78-58.33,0-116.66.14-175-.23-7.92,0-12.46,2.56-16.95,8.88Q204.41,310.32,75.44,490.81c-2.39,3.35-4.33,7.19-7.64,9.7-2.57-1.64-2.17-3.86-2.54-5.73-3.53-18-7-35.94-10.5-53.91Q24.21,285.61-6.38,130.33c-1.86-9.48-1.83-9.5-12-9.5-51.33,0-102.67-.15-154,0-44.07.17-86.85-6.84-128.26-22a249.84,249.84,0,0,1-53.4-26.81c-50.16-33.57-75.7-80.91-78.57-140.82-1.19-24.82.71-49.29,9.83-72.72C-412.87-167-396.74-187-371-198c34.11-14.54,72.92-3.5,91.87,26.27a97.89,97.89,0,0,1,15.42,47c1.74,27.69-20.08,53.19-47.69,56a55.9,55.9,0,0,0-6,.43A12.2,12.2,0,0,0-327-58.17c-.85,5.32,1.26,9.65,6.4,12.35a28.91,28.91,0,0,0,11.52,2.94A76.34,76.34,0,0,0-226.77-117c1-35.43-12.36-64.42-40.57-85.88-35.49-27-75.77-35.8-119-26-58.27,13.28-98,47.72-113.51,106.86-8.24,31.55-7.81,63.47.36,94.93C-478.28,54.47-426.24,107.85-348,136.61c35.4,13,72.49,16.73,109.89,18.46,16.61.76,33.34,1,49.62,5,22.06,5.49,30.18,17.8,27,40.39a173.08,173.08,0,0,1-7.47,30q-54,163.49-108,327c-6.06,18.32-11.89,36.73-19.9,54.34-6.67,14.66-17.58,24.83-32.38,31a92.17,92.17,0,0,1-21,6.07c-6.89,1.09-13.78,2.2-20.65,3.41-5.83,1-9.56,4.67-11.16,10.21-2.26,7.89-4.2,15.88-6.55,24.85H-206c21.69,0,21.69,0,25.44-21.37,2-11.37-.17-14.32-12.13-15a114.78,114.78,0,0,1-21.73-3c-19.06-4.83-27.2-16-26.15-35.62a70.79,70.79,0,0,1,1.29-8.89c3-16.44,9.05-32,14.24-47.78q50.32-153.14,100.65-306.26c.84-2.58,1.06-5.69,3.17-7.61,2.25.68,2,2.22,2.27,3.42q11.81,59.76,23.56,119.52Q-70,494-44.51,623.32c3.79,19.27,7.71,38.51,11.52,57.77.58,2.92.42,6,4.77,6.21,10.72.5,21.66,1.78,26.61-11.26Q154.6,456.68,310.84,237.34c1.54-2.16,2.52-5.06,6-6.05-.2,1.56-.26,2.54-.46,3.51q-32.62,164-65.32,328.05c-3.66,18.27-7.72,36.47-15.72,53.5-8.52,18.15-22.08,29.49-42.26,32.77a228.32,228.32,0,0,1-36.79,3.07c-6.52,0-11.86,2.07-14.87,8.13-4.11,8.27-6.4,17.07-7.92,27.09H376.53c1.31,3.51-.91,5.14-2,6.94Q340.35,749,306,803.52a214.3,214.3,0,0,1-30.51,38.17c-19.6,19.39-43,30.83-70.24,35.08-21.12,3.31-42.46,3.8-63.7,5.41-51,3.84-98.22,19.23-139.44,49.3-70,51-104.31,119.85-94.71,207.19,5.8,52.81,33.49,92,82.23,114.66,50.16,23.26,99.64,21.77,146.51-8.73,33.72-21.94,49.73-53.85,47.16-94.28s-34.95-71-77-71.56c-6-.08-12.08.74-17.3,4-7.52,4.77-7.5,14.9-.31,20.18,2.71,2,5.69,1.41,8.6,1.82,26.87,3.77,54.76,25.61,48.77,63.51a120.85,120.85,0,0,1-7.43,25.83c-18.32,46.18-67.51,56-102.77,38.67-26.21-12.93-41.55-34.71-50.32-61.68-8.38-25.81-9-52.35-6.22-79.1,4.2-40.47,19.53-75.76,48.67-104.68,22.4-22.22,49.07-37.59,78.36-48.57,41.61-15.6,84.84-22.44,129.17-22.53q85-.16,170,0,4,0,8,0c1.7,0,3.36-.24,3.9-2.25,2.22-8.35,5.33-16.54,5.77-25.24.27-5.43-2.05-7.6-7.94-8-5.65-.35-11.33-.06-17-.32-13-.62-26-1.48-38.44-5.55-14.71-4.81-18.79-12.29-15.2-27.44,3.29-13.85,10.58-25.8,18-37.66,19.94-31.91,40.16-63.65,59.82-95.73,3.8-6.21,7.87-8.28,15.07-8.24,59.66.31,119.33.18,179,.18a49,49,0,0,0,5,0c4.28-.42,5.5,1.58,6,5.69,3.74,28.06,7.85,56.06,11.72,84.1,1.55,11.2,3.83,22.34,3.75,33.72-.21,27.73-14.24,44.21-41.33,49.18-10.58,1.94-21.2,2-31.86,2-6,.06-12,0-17.89,1.47-3.88,1-7,2.93-8.13,6.62-2.68,8.84-5.93,17.56-7.36,27.47h11.72q132.5,0,265,0c22.69,0,45.3-.73,67.81-3.67,46.34-6.06,90.49-19.1,131.17-42.44C1097.87,821,1135.19,729.61,1125.33,653.5Zm-510,2c-1.33-.05-2.67,0-4,0l-144.9,0c-1.62,0-3.31.27-5.71-1.73L591.63,445l1.67.53c2,15.4,3.93,30.8,5.85,46.2q9.68,77.28,19.31,154.54c.2,1.65.39,3.31.63,4.95C619.53,654.12,618.36,655.57,615.33,655.45Z" transform="translate(553.72 344.75)"/></svg>